<?xml version="1.0" standalone="no"?><!DOCTYPE svg PUBLIC "-//W3C//DTD SVG 1.1//EN" "http://www.w3.org/Graphics/SVG/1.1/DTD/svg11.dtd"><svg t="1504840351589" class="icon" style="" viewBox="0 0 1024 1024" version="1.1" xmlns="http://www.w3.org/2000/svg" p-id="2700" xmlns:xlink="http://www.w3.org/1999/xlink" width="200" height="200"><defs><style type="text/css"></style></defs><path d="M177.193 129.05c21.434 0.286 65.125 21.714 115.003 69.194 50.095 47.687 94.168 109.882 117.893 166.372 39.792 94.744 74.588 168.862 115.064 222.632 20.141 26.756 41.87 48.79 66.429 67.361 22.557 17.057 47.806 31.572 79.458 45.681 26.973 12.022 53.058 23.351 78.284 34.306 59.956 26.038 111.735 48.526 151.584 69.851 19.045 10.192 34.16 19.539 44.925 27.781 3.584 2.744 6.348 5.107 8.459 7.071-6.678 8.162-18.899 20.247-37.119 32.605-27.221 18.463-48.188 24.436-54.078 24.436l-296.64 0c-7.312 0-22.587-9.804-43.529-37.32-25.525-33.536-50.578-80.925-77.103-131.097-11.922-22.549-24.249-45.867-36.932-68.44-18.883-33.608-41.454-65.243-63.555-89.079-14.25-15.369-28.556-27.772-42.52-36.862-21.108-13.741-42.546-20.708-63.721-20.708-20.726 0-40.298 8.834-55.112 24.874-7.27 7.872-13.389 17.403-18.709 29.138-6.438 14.203-12.067 32.557-17.206 56.111-7.442 34.105-14.172 80.778-20.003 138.721-0.571 5.671-1.122 11.339-1.654 16.98-3.535-63.121-9.031-121.409-16.461-174.394-11.999-85.568-26.548-140.758-36.176-177.278-4.005-15.19-8.542-32.401-8.774-37.841 0.02-40.441 10.818-103.183 20.51-134.252 16.992-54.469 39.819-85.554 55.977-102.04C159.02 134.961 173.235 129.608 177.193 129.05M176.762 65.047c-40.449 0-113.666 46.786-152.348 170.786-11.617 37.24-23.413 106.87-23.413 153.423 0 49.518 66.166 157.577 66.166 570.084 26.001 0 110.95 0 110.95 0s16.014-382.506 60.98-382.506c36 0 84.161 60.893 114 114 68.656 122.192 127.924 269.506 213.36 269.506 116.64 0 245.425 0 296.64 0 57 0 159.905-75.506 159.905-121.924 0-64.444-148.651-117.577-325.905-196.582-102.162-45.536-144-102-228-302C412.479 205.03 269.096 65.047 176.762 65.047L176.762 65.047z" p-id="2701" fill="#ffffff"></path></svg>