<?xml version="1.0" standalone="no"?><!DOCTYPE svg PUBLIC "-//W3C//DTD SVG 1.1//EN" "http://www.w3.org/Graphics/SVG/1.1/DTD/svg11.dtd"><svg t="1504840668830" class="icon" style="" viewBox="0 0 1024 1024" version="1.1" xmlns="http://www.w3.org/2000/svg" p-id="2279" xmlns:xlink="http://www.w3.org/1999/xlink" width="200" height="200"><defs><style type="text/css"></style></defs><path d="M838.872652 446.573895l-14.057157 0-56.228629-189.06196c-14.648628-49.323359-47.151903-82.011852-102.83204-100.580766 0.025583-0.416486 0.063445-0.829901 0.063445-1.25355L665.818271 83.646072c0-11.050684-8.959046-20.008706-20.008706-20.008706L375.689475 63.637366c-11.04966 0-20.008706 8.958022-20.008706 20.008706L355.680768 155.678642c0 0.88823 0.077771 1.757017 0.190335 2.615571-12.209066 4.181229-23.350824 9.005095-33.441647 14.495132-36.647665 19.942191-59.702754 48.585555-70.480214 87.555102L200.344934 446.573895l-13.763468 0c-60.681034 0-110.049418 49.367361-110.049418 110.049418l0 218.09725c0 60.681034 49.367361 110.049418 110.049418 110.049418l2.000564 0 0 16.007579c0 33.098839 26.928303 60.027142 60.027142 60.027142l30.013571 0c33.098839 0 60.027142-26.928303 60.027142-60.027142l0-16.007579 346.154811 0 0 16.007579c0 33.098839 26.928303 60.027142 60.027142 60.027142l30.013571 0c33.098839 0 60.027142-26.928303 60.027142-60.027142l0-16.007579 4.002151 0c60.681034 0 110.049418-49.367361 110.049418-110.049418l0-218.09725C948.921048 495.941256 899.553687 446.573895 838.872652 446.573895zM838.872652 486.591307c38.614459 0 70.030983 31.416524 70.030983 70.030983l0 209.327516-280.887318 0c0.928139-1.077541 1.863441-2.14792 2.752694-3.267417 3.036149-3.822049 6.191003-8.200776 8.700149-14.319124 7.813966-19.073404 36.055171-86.155219 71.4104-148.56871 59.120492-104.364953 90.99955-112.475677 99.002828-112.475677l0-0.729617c0.002047 0 0.005117 0 0.008186 0L838.872652 486.58926zM599.437421 737.791489c-13.20679 16.622586-33.515325 26.157753-55.720046 26.157753l-11.958356 0 0-278.124392 209.55776 0c-20.322861 21.766746-41.871643 52.965306-65.25726 94.247524-36.514635 64.458057-65.579601 133.497457-73.618695 153.117306C601.979314 734.313272 601.38989 735.333508 599.437421 737.791489zM491.740584 763.949242 472.894354 763.949242c-11.283997 0-21.162995-1.889023-29.383214-5.617951-15.683191-7.110955-27.558659-20.288069-33.449833-37.108153-11.612479-33.141818-35.799344-97.399307-67.413366-155.403373-18.583241-34.095539-36.791951-60.685127-54.827723-79.994915l203.919343 0L491.739561 763.949242zM395.698181 103.654778l230.102678 0 0 43.082214c-31.840172-6.02318-69.327972-8.898671-113.074312-8.898671-45.25981 0-84.087117 3.25616-117.028367 9.863648L395.698181 103.654778zM290.514583 271.021623c11.999288-43.376926 48.097438-93.16589 222.211964-93.16589 38.991036 0 72.809259 2.561335 101.275591 7.634888l-152.268986 96.316649c-9.339716 5.906523-12.121062 18.267039-6.213515 27.605731 3.808746 6.02011 10.295484 9.315156 16.929578 9.315156 3.656273 0 7.356548-1.00284 10.677177-3.101641L666.040329 199.926402c5.383614 2.224668 10.410094 4.612041 15.052834 7.170307 25.448602 14.022365 40.60172 33.085536 49.13507 61.815881l52.609195 176.894849L242.081501 445.807439 290.514583 271.021623zM186.581466 486.591307l28.982078 0c0.01842 0 0.035816-0.002047 0.054235-0.002047l0 0.547469c42.018999 0 104.861256 99.389638 156.690692 247.317759 4.046153 11.550057 10.047844 22.192442 17.582447 31.496341L116.550483 765.950829l0-209.327516C116.550483 518.007831 147.965983 486.591307 186.581466 486.591307zM298.631448 900.776538c0 11.032264-8.976442 20.008706-20.008706 20.008706l-30.013571 0c-11.032264 0-20.008706-8.976442-20.008706-20.008706l0-16.007579 70.030983 0L298.631448 900.776538zM794.85309 900.776538c0 11.032264-8.976442 20.008706-20.008706 20.008706l-30.013571 0c-11.032264 0-20.008706-8.976442-20.008706-20.008706l0-16.007579 70.030983 0L794.85309 900.776538zM838.872652 844.751546 186.581466 844.751546c-27.38879 0-51.141774-15.814174-62.645782-38.783305l777.582751 0C890.013403 828.937372 866.261443 844.751546 838.872652 844.751546z" p-id="2280" fill="#ffffff"></path><path d="M730.701001 645.36545c0 43.665499 35.524075 79.189573 79.189573 79.189573s79.19162-35.524075 79.19162-79.189573-35.525098-79.189573-79.19162-79.189573S730.701001 601.698928 730.701001 645.36545zM849.064782 645.36545c0 21.599947-17.572214 39.172161-39.174208 39.172161-21.599947 0-39.172161-17.572214-39.172161-39.172161s17.572214-39.172161 39.172161-39.172161C831.492568 606.193289 849.064782 623.765503 849.064782 645.36545z" p-id="2281" fill="#ffffff"></path><path d="M215.562521 724.555024c43.665499 0 79.189573-35.524075 79.189573-79.189573s-35.524075-79.189573-79.189573-79.189573-79.189573 35.524075-79.189573 79.189573S171.897022 724.555024 215.562521 724.555024zM215.562521 606.193289c21.599947 0 39.172161 17.572214 39.172161 39.172161s-17.572214 39.172161-39.172161 39.172161-39.172161-17.572214-39.172161-39.172161S193.963597 606.193289 215.562521 606.193289z" p-id="2282" fill="#ffffff"></path></svg>